<?xml version="1.0" encoding="utf-8"?>
<!-- Generator: Adobe Illustrator 23.0.1, SVG Export Plug-In . SVG Version: 6.00 Build 0)  -->
<svg version="1.1" xmlns="http://www.w3.org/2000/svg" xmlns:xlink="http://www.w3.org/1999/xlink" x="0px" y="0px"
	 viewBox="0 0 732 129" style="enable-background:new 0 0 732 129;" xml:space="preserve">
<style type="text/css">
	.st0{display:none;}
	.st1{display:inline;}
	.st2{fill:none;}
	.st3{enable-background:new    ;}
	.st4{fill:#0C416E;}
	.st5{fill:#929191;}
	.st6{fill:#3F68A8;}
</style>
<g id="Calque_1" class="st0">
	<g id="Calque_1_-_copie" class="st1">
		<rect x="30" y="25" class="st2" width="711" height="113"/>
		<g class="st3">
			<path class="st4" d="M39.3,31.8h21.1c13.8,0,23.7,4.9,23.7,19c0,10.5-6,16.9-15.2,19.2L86,99.4h-9.7L60.1,70.8H47.8v28.5h-8.5
				V31.8z M59.1,63.8c10.5,0,16.4-4.3,16.4-13.1c0-8.9-5.9-12.1-16.4-12.1H47.8v25.1H59.1z"/>
			<path class="st4" d="M94,65.6c0-21.7,12.8-35,30-35c8.2,0,14.6,3.9,18.5,8.3l-4.6,5.6c-3.6-3.8-8-6.4-13.8-6.4
				c-12.8,0-21.2,10.5-21.2,27.3c0,17,8.1,27.7,20.9,27.7c6.5,0,11.3-2.9,15.7-7.6l4.7,5.4c-5.4,6.2-11.9,9.8-20.7,9.8
				C106.5,100.6,94,87.6,94,65.6z"/>
		</g>
		<g class="st3">
			<path class="st4" d="M172.7,31.4h2.9l24.3,68h-3.5L188,75.1h-27.7l-8.5,24.3h-3.3L172.7,31.4z M161.3,72.2H187l-4.7-13.6
				c-2.9-8.2-5.4-15.2-7.8-23.7H174c-2.5,8.4-4.9,15.5-7.8,23.7L161.3,72.2z"/>
			<path class="st4" d="M205.9,90.3l2.3-2.3c4.9,5.8,12.2,9.5,20.4,9.5c10.9,0,17.9-6,17.9-14.6c0-9.1-5.8-11.9-12.6-15l-10.5-4.7
				c-5.8-2.6-13.8-6.6-13.8-16.7c0-9.7,8.2-16.3,19.2-16.3c8.2,0,14.6,3.8,18.5,8l-2.1,2.3c-3.9-4.3-9.5-7.2-16.5-7.2
				c-9.5,0-15.9,5.2-15.9,13c0,8.4,7.1,11.6,11.9,13.8l10.5,4.7c7.5,3.4,14.4,7.4,14.4,17.9c0,10.3-8.4,17.9-21.2,17.9
				C218.5,100.6,211.1,96.3,205.9,90.3z"/>
			<path class="st4" d="M258,90.3l2.3-2.3c4.9,5.8,12.2,9.5,20.4,9.5c10.9,0,17.9-6,17.9-14.6c0-9.1-5.8-11.9-12.6-15l-10.5-4.7
				c-5.8-2.6-13.8-6.6-13.8-16.7c0-9.7,8.2-16.3,19.2-16.3c8.2,0,14.6,3.8,18.5,8l-2.1,2.3c-3.9-4.3-9.5-7.2-16.5-7.2
				c-9.5,0-15.9,5.2-15.9,13c0,8.4,7.1,11.6,11.9,13.8l10.5,4.7c7.5,3.4,14.4,7.4,14.4,17.9c0,10.3-8.4,17.9-21.2,17.9
				C270.6,100.6,263.2,96.3,258,90.3z"/>
			<path class="st4" d="M316.3,74V31.4h3.3v41.8c0,18.7,9.1,24.3,19,24.3c10.1,0,19.4-5.6,19.4-24.3V31.4h3.1V74
				c0,21-11.5,26.6-22.5,26.6S316.3,95,316.3,74z"/>
			<path class="st4" d="M381.4,31.4h18.7c13.4,0,21.8,4.9,21.8,17.5c0,10.8-7,17.1-18.3,18.1L423,99.4h-3.9L400,67.2h-15.2v32.1
				h-3.3L381.4,31.4L381.4,31.4z M398.9,64.3c12.6,0,19.6-4.9,19.6-15.5c0-10.7-7-14.6-19.6-14.6h-14.2v30.1H398.9z"/>
			<path class="st4" d="M451.5,31.4h2.9l24.3,68h-3.5l-8.4-24.3H439l-8.5,24.3h-3.3L451.5,31.4z M440,72.2h25.6l-4.7-13.6
				c-2.9-8.2-5.4-15.2-7.8-23.7h-0.4c-2.5,8.4-4.9,15.5-7.8,23.7L440,72.2z"/>
			<path class="st4" d="M490,31.4h3.5l30.1,49.9l7.8,13.4h0.4c-0.2-6.6-0.4-12.8-0.4-19.2V31.4h3.1v68H531l-30.1-49.9l-7.8-13.4
				h-0.4c0.2,6.4,0.4,12.2,0.4,18.5v44.7H490L490,31.4L490,31.4z"/>
			<path class="st4" d="M550.5,65.2c0-21.4,11.3-35,28.6-35c7.8,0,13.8,3.9,17.3,8l-2.1,2.3c-3.7-4.3-8.9-7.2-15.2-7.2
				c-15.7,0-25.1,12.4-25.1,31.9s9.5,32.3,24.7,32.3c7.2,0,12.6-2.9,17.7-8.7l2.1,2.1c-5.2,6-11.1,9.7-20,9.7
				C561.9,100.6,550.5,86.6,550.5,65.2z"/>
			<path class="st4" d="M613,31.4h36.5v2.9h-33.2v27.4h27.8v2.9h-27.8v31.9h34.2v2.9H613V31.4z"/>
			<path class="st4" d="M660.1,90.3l2.3-2.3c4.9,5.8,12.2,9.5,20.4,9.5c10.9,0,17.9-6,17.9-14.6c0-9.1-5.8-11.9-12.6-15l-10.5-4.7
				c-5.8-2.6-13.8-6.6-13.8-16.7c0-9.7,8.2-16.3,19.2-16.3c8.2,0,14.6,3.8,18.5,8l-2.1,2.3c-3.9-4.3-9.5-7.2-16.5-7.2
				c-9.5,0-15.9,5.2-15.9,13c0,8.4,7.1,11.6,11.9,13.8l10.5,4.7c7.5,3.4,14.4,7.4,14.4,17.9c0,10.3-8.4,17.9-21.2,17.9
				C672.7,100.6,665.3,96.3,660.1,90.3z"/>
		</g>
	</g>
</g>
<g id="Calque_2">
	<g>
		<g>
			<path class="st5" d="M69,89v5.1h-1.2h-5.4h-5.1c-1,0-1.9-0.2-2.6-0.6c-0.7-0.4-1.2-1-1.7-1.7L39.8,71.7c-0.5-0.8-1-1.2-1.6-1.6
				c-0.6-0.3-1.5-0.5-2.6-0.5h-4.4v15.9c1,0.2,2,0.3,2.6,0.4c0.6,0.1,1,0.3,1.3,0.3c0.3,0,0.4,0.1,0.5,0.1c1.5,0.3,2.2,1.2,2.2,2.7
				v5.1h-6.6H19.6H13V89c0-1.5,0.7-2.3,2.2-2.7c0.1,0,0.3-0.1,0.5-0.1c0.3-0.1,0.7-0.2,1.3-0.3s1.6-0.3,2.6-0.4V40.2
				c-1-0.2-2-0.3-2.6-0.4c-0.6-0.1-1-0.3-1.3-0.3c-0.3,0-0.4-0.1-0.5-0.1C13.7,39,13,38.2,13,36.7v-5.1h6.6H38c4.2,0,8,0.4,11,1.3
				c3,0.9,5.5,2.2,7.4,3.7c1.9,1.6,3.5,3.5,4.3,5.7c1,2.2,1.4,4.6,1.4,7.3c0,2.1-0.3,4.1-1,6c-0.6,1.9-1.6,3.5-2.7,5.1
				c-1.1,1.6-2.6,2.9-4.3,4c-1.7,1.1-3.7,2.1-5.9,2.8c1.5,0.9,2.8,2.1,3.8,3.6L62,85.6c1,0.2,2,0.3,2.7,0.4c0.7,0.1,1.1,0.3,1.5,0.3
				s0.6,0.1,0.7,0.1C68.3,86.7,69,87.6,69,89z M47.6,58.2c1-1,1.8-2.2,2.3-3.5c0.5-1.3,0.8-2.8,0.8-4.3c0-3.2-1-5.6-3.1-7.4
				c-2.1-1.7-5.3-2.5-9.6-2.5h-6.8v20.8h6.7c2.2,0,4.1-0.3,5.7-0.9C45.2,60,46.6,59.2,47.6,58.2z"/>
			<path class="st5" d="M114.4,49.8c-0.2-0.8-0.4-3.1-0.8-6.9c-4.8-1.4-8.7-2-11.9-2c-2.9,0-5.6,0.4-8.1,1.5c-2.5,1-4.6,2.5-6.3,4.4
				c-1.7,1.9-3.1,4.2-4.2,6.9c-1,2.8-1.6,5.9-1.6,9.3c0,3.5,0.5,6.6,1.6,9.3c1,2.8,2.2,5,4,6.9c1.7,1.9,3.7,3.3,6.1,4.3
				c2.3,1,4.8,1.5,7.4,1.5c1.6,0,3-0.1,4.3-0.3c1.3-0.2,2.5-0.4,3.5-0.8c1-0.3,2.1-0.9,3-1.5c1-0.6,1.9-1.4,2.9-2.2
				c0.3-0.3,0.6-0.4,1-0.6c0.3-0.2,0.7-0.2,1-0.2c0.6,0,1.2,0.2,1.6,0.7l4.6,5c-2.5,3.1-5.6,5.5-9.3,7.2c-3.7,1.6-8.2,2.5-13.4,2.5
				c-4.7,0-8.7-0.9-12.5-2.4c-3.7-1.6-6.9-3.7-9.5-6.6c-2.6-2.9-4.7-6.2-6.1-10.1c-1.4-3.9-2.1-8.1-2.1-12.8c0-4.7,0.8-9.1,2.3-13
				c1.6-3.9,3.7-7.2,6.6-10c2.9-2.9,6.1-5.1,10.1-6.7c3.9-1.6,8.3-2.3,13.1-2.3c5.2,0,11.8,1.5,19.6,4.5v15.9h-5
				C115.3,51.3,114.7,50.8,114.4,49.8z"/>
		</g>
		<g>
			<g>
				<path class="st5" d="M268,89.7v4.4h-3h-6.7h-1.5H256h-9.1v-4.4c0-1,0.6-1.7,1.7-2.2c0.2-0.1,0.8-0.3,1.7-0.7l-0.3-1l-3.1-8.5
					H222l-3.2,8.9l-0.3,0.5c1,0.4,1.6,0.6,1.7,0.7c1.1,0.5,1.7,1.2,1.7,2.2v4.4h-9h-0.9h-1.4h-6.8h-3v-4.4c0-1,0.6-1.7,1.7-2.2
					c0.4-0.2,2.1-0.9,4.8-2l21.1-53.9h11.9l21.2,53.9c2.7,1.1,4.3,1.8,4.8,2C267.5,87.9,268,88.7,268,89.7z M225,69.1H244l-7.2-19.5
					c-0.3-1-0.7-2-1.1-3.2c-0.4-1.2-0.8-2.7-1.2-4.2c-0.4,1.5-0.9,2.9-1.2,4.2c-0.3,1.3-0.8,2.3-1.1,3.3L225,69.1z"/>
				<path class="st5" d="M303.3,80c0,2.2-0.4,4.2-1.2,6c-0.8,1.8-1.9,3.4-3.4,4.7s-3.3,2.3-5.5,3c-2.2,0.8-4.8,1.1-7.6,1.1
					c-5.5,0-10.9-1.2-14.1-2.4v-4.3v-8.2h0.4h1h3.5c1.1,0,1.7,0.6,2,1.6c0.1,0.4,0.3,1.6,0.6,5.1c2.3,0.7,5.1,0.7,7,0.7
					c1.3,0,2.4-0.2,3.3-0.4c1-0.3,1.6-0.7,2.2-1.2c0.6-0.5,1-1,1.3-1.6c0.3-0.7,0.3-1.4,0.3-2.1c0-1-0.3-1.8-0.9-2.5
					c-0.6-0.7-1.5-1.2-2.5-1.7c-1-0.5-2.2-1-3.5-1.3c-1.3-0.4-2.7-0.9-4.1-1.3c-1.4-0.4-2.7-1-4-1.6c-1.3-0.6-2.5-1.4-3.5-2.3
					c-1-1-1.8-2.1-2.4-3.5c-0.6-1.4-1-3-1-5c0-1.8,0.3-3.5,1-5.2c0.7-1.6,1.8-3.1,3.2-4.3c1.4-1.2,3.2-2.2,5.3-2.9
					c2.1-0.7,4.4-1.1,7.2-1.1c4.3,0,6.7,0.4,13,2.3h-0.1v12.5h-0.3h-1h-3.5c-1.1,0-1.7-0.6-2-1.6c-0.1-0.4-0.3-1.5-0.6-4.8
					c-1.1-0.3-3.2-0.6-5.2-0.6c-2.1,0-3.7,0.4-4.9,1.3c-1.2,0.9-1.8,2.1-1.8,3.5c0,1,0.3,1.7,1,2.4c0.6,0.7,1.4,1.1,2.4,1.6
					c1,0.5,2.2,1,3.5,1.4c1.3,0.3,2.6,0.8,4,1.2c1.4,0.4,2.8,1,4.1,1.6c1.3,0.6,2.4,1.3,3.5,2.2c1,0.9,1.8,1.9,2.4,3.2
					C303,76.8,303.3,78.2,303.3,80z"/>
				<path class="st5" d="M338.1,80c0,2.2-0.4,4.2-1.2,6c-0.8,1.8-1.9,3.4-3.4,4.7c-1.5,1.3-3.3,2.3-5.5,3c-2.2,0.8-4.8,1.1-7.6,1.1
					c-5.5,0-10.9-1.2-14.1-2.4v-4.3v-8.2h0.4h1h3.5c1.1,0,1.7,0.6,2,1.6c0.1,0.4,0.3,1.6,0.6,5.1c2.3,0.7,5.1,0.7,7,0.7
					c1.3,0,2.4-0.2,3.3-0.4c1-0.3,1.6-0.7,2.2-1.2c0.6-0.5,1-1,1.3-1.6c0.3-0.7,0.3-1.4,0.3-2.1c0-1-0.3-1.8-0.9-2.5
					c-0.6-0.7-1.5-1.2-2.5-1.7c-1-0.5-2.2-1-3.5-1.3c-1.3-0.4-2.7-0.9-4.1-1.3c-1.4-0.4-2.7-1-4-1.6c-1.3-0.6-2.5-1.4-3.5-2.3
					c-1-1-1.8-2.1-2.4-3.5c-0.6-1.4-1-3-1-5c0-1.8,0.3-3.5,1-5.2c0.7-1.6,1.8-3.1,3.2-4.3c1.4-1.2,3.2-2.2,5.3-2.9
					c2.1-0.7,4.4-1.1,7.2-1.1c4.3,0,6.7,0.4,13,2.3h-0.1v12.5h-0.3h-1h-3.5c-1.1,0-1.7-0.6-2-1.6c-0.1-0.4-0.3-1.5-0.6-4.8
					c-1.1-0.3-3.2-0.6-5.2-0.6c-2.1,0-3.7,0.4-4.9,1.3c-1.2,0.9-1.8,2.1-1.8,3.5c0,1,0.3,1.7,1,2.4c0.6,0.7,1.4,1.1,2.4,1.6
					c1,0.5,2.2,1,3.5,1.4c1.3,0.3,2.6,0.8,4,1.2c1.4,0.4,2.8,1,4.1,1.6c1.3,0.6,2.4,1.3,3.5,2.2c1,0.9,1.8,1.9,2.4,3.2
					C337.8,76.8,338.1,78.2,338.1,80z"/>
				<path class="st5" d="M392.1,89v5.1h-6.5H379c-1.4,0-2.2-0.7-2.7-2l-0.8-3.5c-1,1-1.9,1.8-2.9,2.6c-1,0.8-2,1.4-3.1,1.9
					c-1.1,0.5-2.3,1-3.6,1.3c-1.3,0.3-2.6,0.4-4.1,0.4c-2.4,0-4.6-0.4-6.5-1.2c-1.8-0.8-3.4-2.1-4.7-3.5c-1.3-1.5-2.2-3.2-2.9-5.3
					c-0.6-2.1-1-4.3-1-6.8V58.3c-3.7-0.7-3.7-0.7-4.4-0.8c-1.5-0.3-2.2-1.2-2.2-2.7v-5.1h6.6h10.6V78c0,2.7,0.7,4.8,1.9,6.3
					c1.2,1.5,3.1,2.2,5.6,2.2c1.8,0,3.5-0.4,5.2-1.2c1.6-0.8,3.1-1.9,4.6-3.4V58.3c-3.6-0.6-3.6-0.7-4.3-0.8
					c-1.5-0.3-2.2-1.2-2.2-2.7v-5.1h6.5h10.7v35.8c3.7,0.7,3.6,0.7,4.3,0.8C391.4,86.7,392.1,87.6,392.1,89z"/>
				<path class="st5" d="M430.3,50.5l-1.4,8c-0.1,0.5-0.3,0.9-0.5,1c-0.3,0.2-0.7,0.3-1.2,0.3c-0.4,0-1-0.1-1.7-0.3
					c-0.8-0.2-1.8-0.3-3-0.3c-2.2,0-4.2,0.6-5.7,1.8c-1.6,1.2-2.9,3.1-4,5.5v19c3.7,0.7,3.6,0.7,4.3,0.8c1.5,0.3,2.2,1.2,2.2,2.7
					v5.1h-6.5H402h-6.5V89c0-1.5,0.7-2.3,2.2-2.7c0.7-0.1,0.6-0.1,4.3-0.8V58.3c-3.7-0.7-3.6-0.7-4.3-0.8c-1.5-0.3-2.2-1.2-2.2-2.7
					v-5.1h6.5h6.3c1.1,0,1.8,0.2,2.2,0.6c0.4,0.4,0.7,1.1,0.9,2.1l0.7,5.4c1.6-2.8,3.4-4.9,5.5-6.5c2.2-1.6,4.5-2.3,7.2-2.3
					C427,49,428.8,49.4,430.3,50.5z"/>
				<path class="st5" d="M473.8,89v5.1h-5.5h-1.1h-3.6c-1,0-1.8-0.1-2.4-0.4c-0.6-0.3-1-1-1.3-1.9l-1-3.1c-1.1,1-2.2,1.9-3.3,2.7
					c-1,0.8-2.2,1.4-3.4,1.9c-1.1,0.5-2.3,0.9-3.6,1.1s-2.8,0.4-4.3,0.4c-1.9,0-3.6-0.3-5.2-0.8c-1.6-0.5-2.9-1.2-4.1-2.2
					c-1.1-1-2.1-2.3-2.7-3.8c-0.6-1.5-1-3.2-1-5.2c0-1.6,0.4-3.4,1.3-5c0.9-1.6,2.3-3.1,4.4-4.4c2.1-1.3,4.8-2.4,8.1-3.3
					c3.4-0.9,7.7-1.3,12.7-1.3v-2.6c0-3-0.7-5.2-1.9-6.7c-1.2-1.5-3-2.2-5.5-2.2c-1.7,0-3.2,0.2-4.3,0.6c-1.1,0.4-2.2,0.9-3,1.4
					c-0.9,0.5-1.6,0.9-2.3,1.3c-0.7,0.4-1.5,0.6-2.3,0.6c-0.7,0-1.4-0.2-1.9-0.5c-0.5-0.3-0.9-0.9-1.2-1.4l-2-3.4
					c5.1-4.7,11.2-7.1,18.4-7.1c2.6,0,4.9,0.4,7,1.3c2,0.9,3.7,2.1,5.1,3.5c1.4,1.6,2.6,3.4,3.3,5.5s1,4.4,1,6.9v19.6
					c1,0.2,1.8,0.3,2.3,0.4c0.5,0.1,0.9,0.2,1,0.2C473.1,86.6,473.8,87.5,473.8,89z M458,75.2c-3.1,0-5.7,0.2-7.8,0.6
					c-2.1,0.4-3.8,1-5.1,1.6c-1.3,0.6-2.2,1.3-2.7,2.1c-0.5,0.8-0.8,1.7-0.8,2.7c0,1.9,0.5,3.3,1.6,4.1c1.1,0.8,2.5,1.2,4.3,1.2
					c1.1,0,2.1-0.1,3-0.3c1-0.2,1.9-0.5,2.7-1c0.8-0.4,1.6-0.9,2.3-1.5c0.8-0.6,1.6-1.3,2.3-2.1V75.2z"/>
				<path class="st5" d="M528.8,89v5.1h-6.6h-10.6V65.9c0-2.7-0.7-4.8-1.9-6.3c-1.2-1.5-3.1-2.2-5.6-2.2c-1.8,0-3.5,0.4-5.2,1.3
					c-1.6,0.9-3.1,1.9-4.6,3.4v23.5c1,0.2,1.9,0.3,2.5,0.4c0.6,0.1,1,0.2,1.3,0.3s0.4,0.1,0.5,0.1c1.5,0.3,2.2,1.2,2.2,2.7v5.1h-6.5
					h-10.7h-6.5V89c0-1.5,0.7-2.3,2.2-2.7c0.1,0,0.3-0.1,0.5-0.1c0.3-0.1,0.7-0.2,1.3-0.3s1.5-0.3,2.5-0.4V58.3
					c-1-0.2-1.9-0.3-2.5-0.4s-1-0.3-1.3-0.3c-0.3-0.1-0.4-0.1-0.5-0.1c-1.5-0.3-2.2-1.2-2.2-2.7v-5.1h6.5h6.6c1.4,0,2.2,0.7,2.7,2
					l0.8,3.5c0.9-1,1.7-1.7,2.8-2.5c1-0.8,2.1-1.4,3.2-1.9c1.1-0.5,2.2-1,3.5-1.3c1.3-0.3,2.7-0.4,4.2-0.4c2.4,0,4.6,0.3,6.5,1.2
					c1.9,0.8,3.4,2,4.7,3.5c1.2,1.5,2.2,3.3,2.9,5.4s1,4.3,1,6.8v19.6c1,0.2,2,0.3,2.6,0.4c0.6,0.1,1,0.3,1.3,0.3
					c0.3,0,0.4,0.1,0.5,0.1C528.1,86.7,528.8,87.6,528.8,89z"/>
				<path class="st5" d="M569.1,87.5c-1.2,1.4-2.4,2.6-3.8,3.5c-1.4,1-2.9,1.6-4.3,2.2c-1.5,0.5-3,0.9-4.6,1.1
					c-1.6,0.3-3.2,0.3-4.8,0.3c-2.8,0-5.3-0.4-7.7-1.5c-2.4-1-4.5-2.5-6.3-4.5c-1.8-2-3.3-4.3-4.3-7.2c-1-2.9-1.6-6.1-1.6-9.8
					c0-3.3,0.4-6.2,1.4-9c1-2.8,2.3-5.2,4.2-7.3c1.8-2.1,4.1-3.6,6.7-4.8c2.7-1.1,5.8-1.7,9.3-1.7c3.6,0,8.3,1,14,3.2l-0.1,13.7
					h-0.3h-1h-3.5c-1.1,0-1.7-0.6-2-1.6c-0.1-0.7-0.3-2.8-0.7-6.2c-2.2-0.6-4.2-0.9-5.7-0.9c-1.9,0-3.5,0.3-4.9,1
					c-1.4,0.7-2.5,1.6-3.5,2.9c-1,1.3-1.7,2.9-2.2,4.7c-0.4,1.8-0.7,3.8-0.7,6.1c0,2.3,0.3,4.5,0.8,6.3c0.5,1.8,1.2,3.4,2.2,4.7
					c1,1.2,2.1,2.2,3.5,2.9c1.4,0.6,2.9,1,4.6,1s3.1-0.2,4.2-0.6c1-0.4,2-0.9,2.7-1.4c0.7-0.5,1.4-1,1.9-1.4c0.5-0.4,1-0.6,1.7-0.6
					c0.9,0,1.6,0.3,2,1L569.1,87.5z"/>
				<path class="st5" d="M600.5,50.4c2.3,0.9,4.3,2.2,6.1,4c1.7,1.7,3,3.8,4,6.3c1,2.5,1.5,5.3,1.5,8.5c0,0.8-0.1,1.6-0.2,2.1
					c-0.1,0.5-0.2,1-0.3,1.2c-0.2,0.3-0.4,0.5-0.8,0.7c-0.3,0.2-0.7,0.2-1.2,0.2H582c0.3,4.6,1.6,7.9,3.7,10
					c2.2,2.2,4.9,3.2,8.5,3.2c1.7,0,3.2-0.2,4.4-0.6c1.3-0.4,2.3-0.9,3.3-1.4c1-0.5,1.8-0.9,2.5-1.3c0.7-0.4,1.3-0.6,2-0.6
					c0.4,0,0.9,0.1,1.2,0.3c0.3,0.2,0.5,0.3,0.8,0.7l3.1,3.9c-1.2,1.4-2.5,2.6-4,3.5c-1.5,1-3,1.7-4.6,2.2c-1.6,0.5-3.3,0.9-4.9,1.1
					s-3.3,0.3-4.8,0.3c-3.1,0-5.9-0.4-8.6-1.5c-2.7-1-4.9-2.6-6.9-4.6c-2-2-3.5-4.5-4.7-7.4c-1.1-2.9-1.6-6.4-1.6-10.3
					c0-3,0.5-5.8,1.5-8.5c1-2.7,2.4-5,4.2-7c1.8-2,4.1-3.5,6.7-4.7c2.6-1.1,5.7-1.7,9-1.7C595.5,49.1,598.1,49.5,600.5,50.4z
					 M585.7,59.4c-1.7,1.7-2.9,4.2-3.4,7.4h20.1c0-1.4-0.3-2.7-0.6-3.9c-0.3-1.2-1-2.2-1.7-3.2c-0.8-1-1.7-1.6-2.9-2.2
					c-1.2-0.5-2.6-0.9-4.2-0.9C589.8,56.7,587.4,57.6,585.7,59.4z"/>
				<path class="st5" d="M646.9,80c0,2.2-0.4,4.2-1.2,6c-0.8,1.8-1.9,3.4-3.4,4.7c-1.5,1.3-3.3,2.3-5.5,3c-2.2,0.8-4.8,1.1-7.6,1.1
					c-5.5,0-10.9-1.2-14.1-2.4v-4.3v-8.2h0.4h1h3.5c1.1,0,1.7,0.6,2,1.6c0.1,0.4,0.3,1.6,0.6,5.1c2.3,0.7,5.1,0.7,7,0.7
					c1.3,0,2.4-0.2,3.3-0.4c1-0.3,1.6-0.7,2.2-1.2c0.6-0.5,1-1,1.3-1.6c0.3-0.7,0.3-1.4,0.3-2.1c0-1-0.3-1.8-0.9-2.5
					c-0.6-0.7-1.5-1.2-2.5-1.7c-1-0.5-2.2-1-3.5-1.3c-1.3-0.4-2.7-0.9-4.1-1.3c-1.4-0.4-2.7-1-4-1.6c-1.3-0.6-2.5-1.4-3.5-2.3
					c-1-1-1.8-2.1-2.4-3.5c-0.6-1.4-1-3-1-5c0-1.8,0.3-3.5,1-5.2c0.7-1.6,1.8-3.1,3.2-4.3c1.4-1.2,3.2-2.2,5.3-2.9
					c2.1-0.7,4.4-1.1,7.2-1.1c4.3,0,6.7,0.4,13,2.3h-0.1v12.5h-0.3h-1h-3.5c-1.1,0-1.7-0.6-2-1.6c-0.1-0.4-0.3-1.5-0.6-4.8
					c-1.1-0.3-3.2-0.6-5.2-0.6c-2.1,0-3.7,0.4-4.9,1.3c-1.2,0.9-1.8,2.1-1.8,3.5c0,1,0.3,1.7,1,2.4c0.6,0.7,1.4,1.1,2.4,1.6
					c1,0.5,2.2,1,3.5,1.4c1.3,0.3,2.6,0.8,4,1.2c1.4,0.4,2.8,1,4.1,1.6c1.3,0.6,2.4,1.3,3.5,2.2c1,0.9,1.8,1.9,2.4,3.2
					C646.6,76.8,646.9,78.2,646.9,80z"/>
			</g>
		</g>
		<g>
			<g>
				<path class="st6" d="M167,33.2c1.7,0.7,3.3,1.6,4.6,2.7c1.3,1.1,2.2,2.4,3,3.9c0.8,1.5,1.1,3,1.2,4.7c-0.4,0.1-0.7,0.2-1,0.3
					c-0.7,0.2-1.2,0.2-1.6,0.2c-0.3,0-0.5-0.1-0.7-0.3s-0.3-0.3-0.4-0.7c-0.2-0.8-0.5-1.6-1-2.6c-0.5-1-1.1-1.9-2-2.8
					c-0.9-0.9-1.9-1.6-3.1-2.2c-1.3-0.6-2.7-0.9-4.4-0.9s-3.4,0.3-4.8,0.8c-1.4,0.5-2.6,1.3-3.6,2.2c-1,1-1.8,2.2-2.3,3.5
					c-0.5,1.3-0.9,2.8-0.9,4.3c0,2.3,0.6,4.7,1.8,6.8c1.2,2.2,3.1,4.4,5.6,6.9l19.3,19c1.3-2.1,2.3-4.2,3.1-6.5
					c0.8-2.2,1.2-4.4,1.5-6.5c0.1-0.3,0.2-0.7,0.3-0.9s0.5-0.3,0.9-0.3h2.3c-0.1,2.7-0.6,5.5-1.6,8.4c-1,2.9-2.2,5.6-4.1,8.2
					L192,94.1h-3.8c-0.5,0-1-0.1-1.3-0.2c-0.3-0.1-0.7-0.3-1.1-0.8l-8.8-8.7c-1.3,1.5-2.8,2.9-4.3,4.2s-3.2,2.4-5,3.3
					c-1.8,0.9-3.8,1.6-5.9,2.2c-2.1,0.5-4.2,0.8-6.5,0.8c-2.2,0-4.3-0.3-6.4-1c-2.1-0.7-4-1.8-5.6-3.2c-1.6-1.4-3-3.1-4.1-5.2
					c-1-2.1-1.5-4.3-1.5-6.9c0-2.1,0.3-4.1,1-6c0.8-1.9,1.8-3.6,3.1-5.2c1.3-1.6,2.9-2.9,4.7-4.2c1.8-1.2,3.6-2.3,5.7-3.1
					c-2.1-2.3-3.5-4.5-4.6-6.7c-1-2.2-1.5-4.5-1.5-7c0-2,0.3-3.9,1-5.6c0.7-1.7,1.7-3.1,3.1-4.4c1.4-1.3,3-2.3,4.9-3
					c1.9-0.7,4-1.1,6.3-1.1C163.4,32.2,165.2,32.5,167,33.2z M143.1,84c0.9,1.6,1.9,3,3.3,4.2c1.4,1.1,2.9,1.9,4.5,2.4
					c1.6,0.5,3.3,0.9,4.9,0.9c2,0,3.9-0.3,5.7-0.7s3.5-1,5.1-1.9c1.6-0.9,3-1.8,4.3-2.9c1.3-1.1,2.4-2.3,3.5-3.7l-19.8-19.6
					c-0.2-0.2-0.3-0.3-0.5-0.4c-1.9,0.8-3.5,1.7-5.1,2.9c-1.6,1.1-2.9,2.4-4,3.8c-1,1.4-1.8,2.9-2.4,4.4c-0.6,1.6-0.9,3.2-0.9,4.9
					C141.8,80.5,142.2,82.4,143.1,84z"/>
			</g>
		</g>
		<g>
			<g>
				<path class="st6" d="M651.9,91.3c0.1-0.4,0.4-0.7,0.6-0.9c0.2-0.2,0.5-0.5,0.9-0.6c0.4-0.1,0.7-0.2,1.2-0.2
					c0.4,0,0.7,0.1,1.1,0.2c0.4,0.1,0.6,0.4,0.9,0.6c0.2,0.2,0.5,0.6,0.6,0.9c0.1,0.4,0.2,0.7,0.2,1.1c0,0.4-0.1,0.7-0.2,1.1
					c-0.1,0.4-0.4,0.6-0.6,0.9s-0.5,0.5-0.9,0.6c-0.4,0.1-0.7,0.2-1.1,0.2c-0.8,0-1.5-0.3-2-0.9s-0.8-1.2-0.8-2
					C651.7,92,651.8,91.6,651.9,91.3z"/>
				<path class="st6" d="M687.7,90.8c-0.5,0.6-1,1.2-1.8,1.7c-0.7,0.6-1.5,1-2.4,1.4c-0.9,0.4-1.9,0.6-3,0.9c-1,0.2-2.2,0.4-3.3,0.4
					c-2,0-3.7-0.4-5.3-1.1c-1.6-0.7-3-1.7-4.2-3.1c-1.2-1.4-2.1-3-2.7-4.9c-0.7-2-1-4.2-1-6.7c0-2.3,0.4-4.5,1-6.4
					c0.6-1.9,1.5-3.6,2.7-5c1.2-1.4,2.7-2.5,4.4-3.3c1.7-0.8,3.6-1.1,5.9-1.1c0.7,0,1.9,0.1,3.3,0.4c1.4,0.3,2.7,0.7,3.8,1l1.6,0.5
					v7.7H685c-0.9,0-1.3-0.5-1.4-1.5c0-0.1,0-0.3-0.1-0.7c-0.1-0.4-0.1-1-0.2-1.7c-0.1-0.7-0.1-1.5-0.1-2.3c-2-0.7-3.7-1-5.2-1
					c-1.8,0-3.3,0.3-4.7,0.9c-1.4,0.6-2.5,1.5-3.5,2.7c-0.9,1.2-1.7,2.6-2.2,4.3c-0.5,1.7-0.7,3.5-0.7,5.6c0,2.2,0.2,4.1,0.7,5.7
					c0.5,1.7,1.2,3.1,2.2,4.2c0.9,1.2,2,2,3.3,2.6c1.3,0.6,2.8,0.9,4.4,0.9c1.5,0,2.8-0.2,3.8-0.6c1-0.4,1.9-0.7,2.5-1.1
					c0.6-0.4,1.2-0.8,1.5-1.2c0.4-0.4,0.6-0.5,0.9-0.5s0.5,0.1,0.6,0.3L687.7,90.8z"/>
				<path class="st6" d="M726,93.5v1.2h-4.4h-2.9V75.1c0-2.9-0.7-5.1-2-6.8c-1.3-1.6-3.3-2.4-6.1-2.4c-2,0-3.9,0.5-5.6,1.5
					c-1.7,1-3.3,2.5-4.6,4.3v20.6c0.6,0,1,0.1,1.5,0.1c0.4,0,0.7,0.1,0.9,0.1h0.5h0.3c0.8,0.1,1.2,0.4,1.2,1.1v1.2h-4.4h-3H693v-1.2
					c0-0.7,0.4-1,1.2-1.1h0.4h1c0.5,0,1.1-0.1,1.8-0.1v-40c-0.6,0-1-0.1-1.5-0.1H695c-0.2,0-0.4-0.1-0.5-0.1h-0.3
					c-0.8-0.1-1.2-0.4-1.2-1.1v-1.2h4.4h3v19.4c1.4-1.7,3-3.1,4.8-4.2c1.9-1,3.9-1.5,6.2-1.5c1.7,0,3.1,0.2,4.4,0.8
					c1.3,0.6,2.3,1.3,3.2,2.3c0.9,1,1.5,2.2,1.9,3.6c0.4,1.4,0.6,3,0.6,4.8v17.2c0.6,0,1.1,0.1,1.5,0.1c0.4,0,0.7,0.1,0.9,0.1h0.4
					h0.4C725.6,92.4,726,92.8,726,93.5z"/>
			</g>
		</g>
	</g>
</g>
</svg>
