<?xml version="1.0" encoding="utf-8"?>
<!-- Generator: Adobe Illustrator 21.1.0, SVG Export Plug-In . SVG Version: 6.00 Build 0)  -->
<svg version="1.1" id="Calque_1" xmlns="http://www.w3.org/2000/svg" xmlns:xlink="http://www.w3.org/1999/xlink" x="0px" y="0px"
	 viewBox="0 0 732 129" style="enable-background:new 0 0 732 129;" xml:space="preserve">
<style type="text/css">
	.st0{fill:none;}
	.st1{enable-background:new    ;}
	.st2{fill:#0C416E;}
</style>
<g id="Calque_1_-_copie">
	<rect x="30" y="25" class="st0" width="711" height="113"/>
	<g class="st1">
		<path class="st2" d="M39.27,31.798h21.115c13.801,0,23.689,4.944,23.689,18.952c0,10.506-5.974,16.892-15.244,19.157L86.03,99.364
			h-9.682l-16.273-28.53H47.818v28.53H39.27V31.798z M59.148,63.83c10.506,0,16.376-4.325,16.376-13.08
			c0-8.858-5.871-12.051-16.376-12.051h-11.33V63.83H59.148z"/>
		<path class="st2" d="M93.961,65.581c0-21.732,12.771-35.019,29.973-35.019c8.239,0,14.625,3.914,18.539,8.343l-4.635,5.562
			c-3.604-3.811-8.033-6.386-13.802-6.386c-12.771,0-21.217,10.506-21.217,27.294c0,16.995,8.137,27.706,20.908,27.706
			c6.488,0,11.329-2.884,15.655-7.621l4.738,5.355c-5.356,6.18-11.948,9.785-20.703,9.785
			C106.527,100.601,93.961,87.623,93.961,65.581z"/>
	</g>
	<g class="st1">
		<path class="st2" d="M172.737,31.386h2.884l24.307,67.978h-3.502l-8.446-24.308h-27.706l-8.549,24.308h-3.296L172.737,31.386z
			 M161.305,72.173h25.646l-4.738-13.596c-2.884-8.239-5.356-15.243-7.828-23.689h-0.412c-2.472,8.446-4.944,15.45-7.828,23.689
			L161.305,72.173z"/>
		<path class="st2" d="M205.902,90.301l2.267-2.267c4.943,5.769,12.153,9.477,20.394,9.477c10.917,0,17.921-5.975,17.921-14.626
			c0-9.063-5.768-11.947-12.565-15.037l-10.506-4.738c-5.768-2.575-13.802-6.592-13.802-16.686c0-9.682,8.24-16.273,19.158-16.273
			c8.239,0,14.625,3.811,18.539,8.034l-2.06,2.266c-3.914-4.326-9.477-7.21-16.479-7.21c-9.477,0-15.862,5.15-15.862,12.978
			c0,8.446,7.107,11.639,11.948,13.802l10.506,4.737c7.519,3.399,14.419,7.416,14.419,17.922c0,10.3-8.445,17.922-21.217,17.922
			C218.468,100.601,211.052,96.274,205.902,90.301z"/>
		<path class="st2" d="M258.021,90.301l2.266-2.267c4.943,5.769,12.153,9.477,20.394,9.477c10.917,0,17.921-5.975,17.921-14.626
			c0-9.063-5.768-11.947-12.565-15.037l-10.506-4.738c-5.768-2.575-13.802-6.592-13.802-16.686c0-9.682,8.24-16.273,19.158-16.273
			c8.239,0,14.625,3.811,18.539,8.034l-2.06,2.266c-3.914-4.326-9.477-7.21-16.479-7.21c-9.477,0-15.862,5.15-15.862,12.978
			c0,8.446,7.107,11.639,11.948,13.802l10.506,4.737c7.519,3.399,14.419,7.416,14.419,17.922c0,10.3-8.445,17.922-21.217,17.922
			C270.586,100.601,263.17,96.274,258.021,90.301z"/>
		<path class="st2" d="M316.317,74.027V31.386h3.296v41.817c0,18.745,9.063,24.308,18.951,24.308
			c10.094,0,19.363-5.562,19.363-24.308V31.386h3.09v42.641c0,21.011-11.535,26.573-22.453,26.573S316.317,95.038,316.317,74.027z"
			/>
		<path class="st2" d="M381.413,31.386h18.745c13.39,0,21.836,4.944,21.836,17.51c0,10.815-7.004,17.097-18.334,18.127
			l19.363,32.341h-3.914l-19.157-32.135h-15.243v32.135h-3.296V31.386z M398.923,64.346c12.565,0,19.569-4.944,19.569-15.45
			c0-10.712-7.004-14.625-19.569-14.625h-14.214v30.075H398.923z"/>
		<path class="st2" d="M451.451,31.386h2.884l24.308,67.978h-3.502l-8.445-24.308h-27.706l-8.549,24.308h-3.296L451.451,31.386z
			 M440.019,72.173h25.646l-4.738-13.596c-2.884-8.239-5.355-15.243-7.827-23.689h-0.412c-2.472,8.446-4.944,15.45-7.828,23.689
			L440.019,72.173z"/>
		<path class="st2" d="M489.974,31.386h3.502l30.075,49.851l7.827,13.389h0.412c-0.206-6.592-0.412-12.771-0.412-19.157V31.386h3.09
			v67.978h-3.502l-30.074-49.851l-7.828-13.39h-0.412c0.206,6.386,0.412,12.154,0.412,18.54v44.7h-3.09V31.386z"/>
		<path class="st2" d="M550.536,65.169c0-21.423,11.33-35.019,28.634-35.019c7.827,0,13.801,3.914,17.303,8.034l-2.06,2.266
			c-3.708-4.326-8.857-7.21-15.243-7.21c-15.656,0-25.132,12.36-25.132,31.929c0,19.569,9.476,32.342,24.72,32.342
			c7.209,0,12.565-2.885,17.715-8.652l2.061,2.061c-5.15,5.974-11.124,9.682-19.981,9.682
			C561.866,100.601,550.536,86.593,550.536,65.169z"/>
		<path class="st2" d="M612.954,31.386h36.461v2.884H616.25v27.396h27.809v2.885H616.25V96.48h34.195v2.884h-37.491V31.386z"/>
		<path class="st2" d="M660.127,90.301l2.267-2.267c4.943,5.769,12.153,9.477,20.394,9.477c10.917,0,17.921-5.975,17.921-14.626
			c0-9.063-5.768-11.947-12.565-15.037l-10.506-4.738c-5.768-2.575-13.802-6.592-13.802-16.686c0-9.682,8.24-16.273,19.158-16.273
			c8.239,0,14.625,3.811,18.539,8.034l-2.06,2.266c-3.914-4.326-9.477-7.21-16.479-7.21c-9.477,0-15.862,5.15-15.862,12.978
			c0,8.446,7.107,11.639,11.948,13.802l10.506,4.737c7.519,3.399,14.419,7.416,14.419,17.922c0,10.3-8.445,17.922-21.217,17.922
			C672.693,100.601,665.277,96.274,660.127,90.301z"/>
	</g>
</g>
</svg>
